Exact Audio Copy V0.99 prebeta 1 from 25. May 2007

EAC 抓取日志文件从7. 十一月 2010, 2:03

李娜 / 20世纪中华歌坛名人百集珍藏版

使用驱动器  ：PIONEER DVD-RW  DVR-115   Adapter: 0  ID: 0

读取模式     : 保护
使用精确流   : 是
废除音频缓冲 : 是
使用 C2 指针 : 否

读取偏移校正                   : 38
读取 Lead-In 和 Lead-Out       : 否
用静音填充抓取中丢失偏移的采样 : 是
去除首尾静音块                 : 否
已用接口                       : Win NT 及 2000 本地 Win32 接口

所用输出格式 : 内部 WAV 函数
样本格式     : 44.100 Hz;16 Bit;立体声


被抓轨 CD 的 TOC

     音轨 |   开始   |   长度   | 起始扇区 | 结尾扇区 
    --------------------------------------------------
       1  |  0:00.00 |  3:45.62 |       0  |   16936  
       2  |  3:45.62 |  3:02.33 |   16937  |   30619  
       3  |  6:48.20 |  3:26.42 |   30620  |   46111  
       4  | 10:14.62 |  4:02.18 |   46112  |   64279  
       5  | 14:17.05 |  2:56.60 |   64280  |   77539  
       6  | 17:13.65 |  2:41.67 |   77540  |   89681  
       7  | 19:55.57 |  3:57.43 |   89682  |  107499  
       8  | 23:53.25 |  4:39.32 |  107500  |  128456  
       9  | 28:32.57 |  4:09.18 |  128457  |  147149  
      10  | 32:42.00 |  4:07.70 |  147150  |  165744  
      11  | 36:49.70 |  4:08.10 |  165745  |  184354  
      12  | 40:58.05 |  4:09.12 |  184355  |  203041  
      13  | 45:07.17 |  3:08.23 |  203042  |  217164  
      14  | 48:15.40 |  3:31.32 |  217165  |  233021  
      15  | 51:46.72 |  3:56.10 |  233022  |  250731  


范围状态及错误

已选择范围

     文件名 E:\文件夹\20世纪中华歌坛名人百集珍藏版-李娜[lwg188原创]\李娜 - 20世纪中华歌坛名人百集珍藏版.wav

     峰值电平 100.0 %
     范围质量 99.9 %
     复制 CRC F43EB28F
     复制成功

没有错误发生

状态报告结尾
